<svg id="visual" viewBox="0 0 900 450" width="900" height="450" xmlns="http://www.w3.org/2000/svg" xmlns:xlink="http://www.w3.org/1999/xlink" version="1.1"><rect x="0" y="0" width="900" height="450" fill="#1B1B1B"></rect><defs><linearGradient id="grad1_0" x1="50%" y1="0%" x2="100%" y2="100%"><stop offset="10%" stop-color="#1b1b1b" stop-opacity="1"></stop><stop offset="90%" stop-color="#1b1b1b" stop-opacity="1"></stop></linearGradient></defs><defs><linearGradient id="grad2_0" x1="0%" y1="0%" x2="50%" y2="100%"><stop offset="10%" stop-color="#1b1b1b" stop-opacity="1"></stop><stop offset="90%" stop-color="#1b1b1b" stop-opacity="1"></stop></linearGradient></defs><g transform="translate(900, 0)"><path d="M0 257C-25.2 265.9 -50.4 274.8 -71.4 266.6C-92.5 258.4 -109.3 233.1 -124 214.8C-138.7 196.5 -151.3 185.1 -179.6 179.6C-207.9 174.1 -251.9 174.4 -272.8 157.5C-293.7 140.6 -291.6 106.5 -288.8 77.4C-286 48.3 -282.5 24.1 -279 0L0 0Z" fill="#B22222"></path></g><g transform="translate(0, 450)"><path d="M0 -315C28.3 -307.1 56.6 -299.1 74.5 -278.2C92.5 -257.3 100 -223.4 124 -214.8C148 -206.2 188.4 -222.9 215.7 -215.7C242.9 -208.4 257 -177.3 253.7 -146.5C250.5 -115.7 230 -85.4 228 -61.1C226 -36.7 242.5 -18.4 259 0L0 0Z" fill="#B22222"></path></g></svg>