<svg id="visual" viewBox="0 0 900 450" width="900" height="450" xmlns="http://www.w3.org/2000/svg" xmlns:xlink="http://www.w3.org/1999/xlink" version="1.1"><rect width="900" height="450" fill="#1B1B1B"></rect><g><g transform="translate(684 371)"><path d="M0 -92L79.7 -46L79.7 46L0 92L-79.7 46L-79.7 -46Z" fill="#B22222"></path></g><g transform="translate(234 32)"><path d="M0 -77L66.7 -38.5L66.7 38.5L0 77L-66.7 38.5L-66.7 -38.5Z" fill="#B22222"></path></g><g transform="translate(702 77)"><path d="M0 -71L61.5 -35.5L61.5 35.5L0 71L-61.5 35.5L-61.5 -35.5Z" fill="#B22222"></path></g><g transform="translate(473 394)"><path d="M0 -58L50.2 -29L50.2 29L0 58L-50.2 29L-50.2 -29Z" fill="#B22222"></path></g><g transform="translate(890 437)"><path d="M0 -66L57.2 -33L57.2 33L0 66L-57.2 33L-57.2 -33Z" fill="#B22222"></path></g></g></svg>